<?xml version="1.0" standalone="no"?>
<!DOCTYPE svg PUBLIC "-//W3C//DTD SVG 20010904//EN"
 "http://www.w3.org/TR/2001/REC-SVG-20010904/DTD/svg10.dtd">
<svg version="1.0" xmlns="http://www.w3.org/2000/svg"
 width="1160.000000pt" height="1160.000000pt" viewBox="0 0 1160.000000 1160.000000"
 preserveAspectRatio="xMidYMid meet">
<metadata>
Created by potrace 1.14, written by Peter Selinger 2001-2017
</metadata>
<g transform="translate(0.000000,1160.000000) scale(0.100000,-0.100000)"
fill="#000000" stroke="none">
<path d="M5570 11590 c0 -5 -9 -7 -20 -5 -11 2 -18 0 -15 -6 4 -5 -24 -9 -69
-9 -54 0 -76 -4 -76 -12 0 -9 -4 -8 -10 2 -6 10 -10 11 -10 3 0 -9 -22 -13
-76 -13 -45 0 -73 -4 -69 -9 3 -6 -4 -8 -15 -6 -11 2 -20 -1 -20 -6 0 -6 -4
-8 -9 -5 -4 3 -45 6 -91 7 -60 1 -85 -2 -91 -12 -7 -12 -9 -12 -9 1 0 11 -3
11 -12 2 -7 -7 -21 -12 -33 -12 -12 0 -27 -6 -34 -12 -8 -7 -11 -8 -8 -2 3 6
0 11 -8 11 -8 0 -12 -4 -9 -9 3 -4 -6 -8 -20 -8 -14 0 -28 -5 -31 -10 -5 -8
-11 -7 -21 1 -11 9 -15 8 -20 -5 -5 -12 -10 -14 -19 -6 -10 8 -15 8 -20 0 -5
-8 -10 -8 -20 0 -9 8 -15 8 -20 0 -3 -6 -11 -8 -16 -4 -5 3 -17 0 -26 -8 -9
-7 -14 -8 -10 -2 3 6 0 11 -8 11 -8 0 -12 -4 -9 -9 3 -4 -8 -8 -23 -8 -16 0
-34 -5 -41 -12 -9 -9 -12 -9 -12 3 0 12 -2 12 -10 -1 -6 -9 -5 -17 3 -22 7 -4
3 -6 -10 -5 -12 0 -19 6 -16 12 3 5 0 4 -8 -2 -7 -7 -32 -13 -56 -13 -28 0
-43 -4 -43 -12 0 -9 -4 -8 -10 2 -7 11 -10 11 -10 2 0 -7 -4 -10 -10 -7 -5 3
-10 1 -10 -5 0 -8 -6 -7 -21 1 -13 7 -19 7 -15 1 3 -6 2 -13 -4 -17 -5 -3 -10
0 -10 7 0 7 -7 2 -16 -10 -13 -19 -18 -21 -32 -10 -13 11 -14 11 -7 -1 6 -11
4 -13 -8 -8 -9 3 -19 2 -22 -3 -3 -5 -14 -7 -25 -5 -12 2 -18 0 -15 -6 4 -5
-11 -9 -34 -9 -23 0 -41 -4 -41 -10 0 -5 -8 -6 -17 -3 -12 5 -15 2 -11 -8 4
-10 -5 -15 -35 -17 -23 -1 -44 -8 -48 -14 -4 -7 -8 -6 -12 3 -4 10 -6 10 -6 2
-1 -7 -8 -13 -16 -13 -8 0 -15 -6 -15 -12 0 -9 -4 -8 -10 2 -8 13 -11 12 -16
-6 -4 -15 -12 -20 -30 -18 -13 1 -26 -2 -29 -6 -3 -5 -14 -7 -25 -5 -11 2 -20
0 -20 -6 0 -5 -12 -9 -26 -9 -14 0 -23 -4 -19 -10 3 -5 -1 -10 -9 -10 -9 0
-16 -6 -16 -12 0 -9 -4 -8 -10 2 -6 10 -10 11 -10 3 0 -7 -9 -13 -21 -13 -11
0 -18 -4 -14 -9 3 -6 -4 -8 -15 -6 -11 2 -20 0 -20 -5 0 -5 -9 -7 -20 -5 -13
2 -21 -3 -26 -17 -5 -17 -8 -18 -16 -7 -7 11 -11 11 -15 1 -2 -6 -9 -10 -14
-6 -5 3 -9 0 -9 -6 0 -6 -4 -9 -9 -6 -5 4 -12 0 -14 -6 -4 -10 -8 -10 -15 1
-8 11 -11 9 -17 -8 -3 -11 -11 -21 -16 -21 -6 0 -7 -5 -3 -12 4 -7 3 -8 -5 -4
-9 6 -9 12 1 24 9 12 7 12 -9 -2 -13 -10 -21 -22 -18 -26 2 -3 -10 -4 -27 -2
-23 3 -29 1 -23 -8 6 -9 3 -9 -13 -1 -24 13 -44 -6 -21 -20 10 -6 9 -8 -6 -8
-42 -1 -54 -5 -48 -14 4 -7 -1 -8 -12 -3 -14 5 -16 4 -6 -7 9 -12 8 -14 -6
-14 -47 0 -64 -4 -58 -13 6 -9 -16 -15 -39 -11 -5 1 -4 -4 2 -11 8 -11 7 -14
-6 -15 -40 -3 -57 -9 -65 -20 -4 -7 -13 -10 -20 -7 -7 2 -22 -6 -33 -18 l-19
-23 23 19 c12 11 22 14 22 8 0 -15 -30 -30 -57 -27 -12 1 -20 -1 -18 -4 2 -4
-4 -15 -12 -26 -13 -16 -15 -17 -10 -2 4 9 2 17 -3 17 -6 0 -10 -5 -10 -11 0
-5 -5 -7 -12 -3 -6 4 -8 3 -5 -3 4 -6 -1 -17 -10 -24 -12 -10 -14 -10 -9 -1
10 17 -2 15 -21 -3 -8 -8 -20 -12 -26 -8 -6 4 -8 0 -4 -9 4 -12 1 -14 -15 -10
-16 4 -19 2 -13 -8 6 -10 3 -12 -13 -8 -16 4 -19 2 -15 -10 5 -12 2 -14 -12
-9 -16 7 -16 5 -4 -10 8 -9 10 -14 4 -11 -19 11 -58 -11 -51 -28 5 -14 4 -15
-9 -4 -13 11 -19 7 -17 -12 1 -3 -5 -9 -14 -12 -8 -3 -13 -2 -10 2 3 5 -1 9
-9 9 -8 0 -13 -2 -11 -5 11 -10 -38 -50 -59 -47 -18 1 -22 -2 -17 -14 5 -14 4
-14 -13 -1 -10 8 -16 10 -12 4 4 -6 -3 -20 -16 -30 -13 -12 -17 -13 -9 -3 9
13 9 16 -2 16 -9 0 -13 -9 -11 -23 2 -20 0 -22 -17 -13 -18 10 -19 9 -7 -13
11 -21 11 -22 -4 -9 -15 11 -18 10 -27 -13 -5 -14 -16 -26 -25 -26 -8 0 -15
-6 -15 -12 0 -9 -4 -8 -10 2 -6 10 -10 11 -10 3 0 -7 -7 -13 -15 -13 -9 0 -18
-7 -21 -15 -4 -8 -10 -12 -15 -9 -5 3 -9 -2 -9 -11 0 -10 5 -13 12 -9 7 4 8 3
4 -4 -5 -9 -13 -9 -27 -2 -10 6 -19 7 -18 3 1 -4 -2 -19 -6 -32 -8 -23 -9 -23
-23 -5 -12 15 -14 16 -9 2 3 -9 -1 -22 -11 -30 -13 -11 -14 -11 -7 1 5 10 4
12 -3 7 -7 -4 -12 -15 -12 -24 0 -13 -2 -14 -9 -4 -6 10 -11 9 -22 -4 -12 -16
-12 -17 1 -9 8 4 12 4 7 0 -12 -14 -37 -15 -37 -2 0 7 -4 6 -9 -3 -6 -8 -7
-18 -4 -24 4 -5 -1 -7 -12 -2 -15 5 -16 4 -5 -9 10 -12 7 -17 -16 -27 -34 -15
-45 -28 -36 -43 3 -5 -1 -5 -9 2 -11 9 -19 8 -34 -4 -19 -15 -19 -15 5 -8 19
5 21 4 10 -4 -8 -6 -23 -11 -32 -11 -9 0 -20 -5 -24 -12 -4 -7 -3 -8 4 -4 7 4
12 1 12 -9 0 -12 -4 -14 -19 -5 -14 7 -22 7 -27 -2 -4 -6 -3 -8 3 -5 6 4 13 0
17 -8 3 -8 2 -14 -2 -14 -22 4 -42 -2 -37 -10 3 -5 -5 -11 -17 -13 -15 -2 -22
-9 -22 -21 2 -15 -1 -16 -14 -5 -13 11 -14 11 -7 -1 6 -11 4 -13 -10 -7 -16 6
-16 4 -4 -11 9 -11 10 -14 2 -9 -8 4 -13 2 -13 -4 0 -6 -4 -8 -10 -5 -5 3 -10
-1 -10 -10 0 -10 5 -13 12 -9 7 4 8 3 4 -4 -5 -9 -13 -9 -28 -1 -12 6 -18 7
-14 1 3 -5 -1 -13 -10 -16 -12 -5 -14 -9 -5 -20 9 -11 6 -13 -13 -11 -19 2
-23 -1 -19 -16 4 -14 1 -18 -10 -13 -8 3 -18 0 -23 -7 -4 -8 -3 -10 4 -5 8 5
10 2 6 -9 -4 -9 -9 -13 -12 -10 -3 2 -10 -5 -17 -18 -6 -13 -20 -22 -33 -21
-17 0 -19 -2 -10 -14 10 -11 8 -13 -7 -10 -10 1 -20 -4 -22 -12 -4 -13 -3 -13
6 0 6 8 11 10 11 4 0 -17 -21 -33 -36 -27 -10 3 -12 0 -9 -10 4 -9 -4 -23 -19
-35 -25 -19 -37 -40 -16 -27 6 3 10 3 10 0 0 -3 -13 -11 -30 -16 -16 -6 -30
-16 -30 -21 0 -6 8 -4 18 3 15 13 16 12 3 -3 -7 -10 -23 -18 -35 -18 -15 0
-17 -3 -8 -9 10 -6 8 -10 -10 -16 -12 -4 -27 -7 -31 -6 -5 1 -6 -3 -2 -8 3 -6
13 -7 23 -4 14 4 13 3 -3 -10 -10 -8 -24 -13 -31 -10 -6 2 -14 -7 -18 -21 -3
-14 -11 -26 -16 -26 -5 0 -7 8 -3 18 3 9 2 14 -2 9 -5 -4 -9 -17 -10 -30 -1
-13 -8 -21 -18 -21 -13 1 -14 -2 -6 -18 8 -15 8 -19 0 -14 -6 4 -11 2 -11 -3
0 -6 -6 -11 -14 -11 -8 0 -18 -4 -21 -10 -3 -6 1 -7 12 -4 12 4 9 -3 -10 -18
-15 -13 -27 -29 -27 -36 0 -8 -5 -10 -13 -6 -8 5 -7 2 2 -9 12 -15 12 -17 -4
-10 -14 5 -17 3 -12 -10 4 -11 1 -17 -8 -17 -9 0 -23 -16 -32 -35 -9 -19 -21
-35 -26 -35 -5 0 -3 8 4 18 13 15 12 16 -4 3 -10 -8 -15 -21 -12 -29 3 -10 0
-12 -10 -8 -9 3 -15 0 -15 -9 0 -8 -5 -15 -11 -15 -6 0 -8 -7 -5 -16 5 -13 4
-14 -7 -5 -12 9 -14 7 -13 -11 1 -25 -37 -70 -51 -60 -4 4 -3 1 4 -7 9 -11 5
-19 -18 -38 -16 -14 -29 -30 -29 -36 0 -7 12 2 26 18 l26 30 -22 -32 c-12 -18
-26 -33 -31 -33 -6 0 -7 -4 -4 -10 3 -5 0 -7 -9 -4 -11 4 -14 -1 -12 -20 3
-21 1 -24 -10 -15 -11 9 -14 7 -14 -10 0 -11 -9 -26 -19 -33 -16 -9 -17 -16
-9 -31 7 -14 7 -17 -1 -13 -6 4 -11 2 -11 -4 0 -6 -5 -8 -12 -4 -8 5 -9 2 -5
-11 6 -14 3 -16 -13 -12 -17 4 -18 2 -9 -14 7 -15 7 -19 -3 -17 -7 2 -12 -5
-12 -14 1 -10 -2 -18 -8 -18 -5 0 -6 -5 -2 -12 4 -7 3 -8 -4 -4 -7 4 -16 -2
-22 -16 -5 -13 -14 -30 -19 -38 -5 -8 -14 -26 -20 -40 l-11 -25 5 25 c3 14 2
19 -1 12 -3 -6 -10 -10 -15 -7 -5 4 -6 -1 -3 -9 4 -10 1 -16 -7 -16 -12 0 -12
-2 -1 -9 11 -7 10 -9 -3 -15 -9 -3 -13 -10 -10 -16 3 -5 1 -10 -6 -10 -8 0 -8
-4 1 -15 10 -12 9 -15 -4 -15 -9 0 -19 -8 -23 -17 -3 -10 -12 -25 -20 -34 -8
-9 -15 -26 -16 -38 -1 -11 -5 -21 -9 -21 -4 0 -5 -6 -2 -13 2 -7 -3 -21 -11
-32 -15 -19 -16 -19 -5 5 11 24 10 24 -5 5 -9 -11 -15 -31 -13 -45 2 -16 -2
-24 -10 -23 -6 2 -12 -2 -12 -8 0 -5 -5 -7 -10 -4 -5 3 -10 1 -10 -4 0 -6 4
-11 9 -11 5 0 4 -11 -2 -24 -7 -13 -15 -22 -19 -20 -3 2 -9 0 -12 -5 -4 -5 -1
-13 5 -17 8 -5 9 -3 4 6 -5 9 -4 11 4 6 14 -9 5 -26 -15 -26 -8 0 -14 -5 -14
-11 0 -5 6 -7 13 -4 6 4 4 0 -6 -8 -9 -8 -17 -23 -17 -34 0 -21 -23 -47 -32
-38 -3 3 -4 -8 -3 -25 1 -16 -2 -30 -7 -30 -4 0 -7 -3 -7 -7 4 -22 -2 -33 -13
-27 -9 5 -8 2 1 -9 12 -15 12 -17 -2 -12 -8 4 -18 1 -23 -6 -4 -8 -3 -10 4 -5
7 4 12 3 12 -3 0 -5 -7 -14 -17 -19 -15 -9 -25 -42 -24 -84 0 -10 -5 -18 -10
-18 -6 0 -7 -4 -4 -10 3 -5 1 -10 -6 -10 -9 0 -9 -3 0 -14 9 -11 9 -16 0 -22
-8 -5 -10 -3 -4 7 5 8 4 11 -1 6 -5 -5 -9 -16 -9 -25 0 -9 -5 -16 -11 -15 -6
1 -10 -9 -8 -22 1 -14 -1 -25 -6 -25 -4 0 -11 -7 -14 -16 -3 -8 -2 -12 4 -9 6
3 10 1 10 -4 0 -6 -4 -11 -10 -11 -5 0 -10 -9 -10 -20 0 -11 -5 -20 -11 -20
-8 0 -7 -5 1 -15 11 -13 10 -14 -5 -9 -13 5 -16 4 -11 -4 4 -7 3 -12 -3 -12
-5 0 -10 -8 -10 -17 1 -36 -13 -88 -24 -98 -7 -5 -12 -20 -11 -32 1 -12 -5
-24 -13 -27 -8 -3 -12 -10 -9 -15 4 -5 2 -21 -4 -35 -7 -18 -6 -26 2 -26 6 0
3 -10 -8 -22 -12 -13 -13 -18 -4 -13 13 8 13 6 1 -8 -7 -9 -11 -23 -8 -31 3
-8 -1 -17 -10 -20 -13 -5 -13 -9 -2 -22 11 -14 10 -15 -7 -12 -14 2 -19 -2
-18 -19 1 -13 -2 -23 -6 -23 -4 0 -5 -11 -3 -25 3 -14 -1 -31 -11 -41 -12 -12
-14 -20 -6 -29 8 -10 8 -15 0 -20 -8 -5 -8 -10 0 -20 8 -9 7 -17 -5 -28 -8 -9
-15 -20 -15 -26 0 -6 -4 -11 -9 -11 -6 0 -9 -12 -7 -27 1 -16 -1 -42 -5 -60
-4 -19 -2 -36 5 -44 8 -9 7 -11 -5 -6 -9 3 -16 0 -16 -9 0 -7 4 -11 9 -8 4 3
5 -2 2 -10 -3 -9 -11 -16 -16 -16 -6 0 -6 -6 1 -14 8 -10 9 -16 1 -21 -7 -4
-7 -12 0 -26 6 -11 7 -19 1 -19 -5 0 -7 -10 -3 -22 4 -16 2 -19 -8 -13 -10 6
-12 4 -7 -9 5 -13 3 -17 -7 -13 -10 4 -13 1 -9 -9 3 -7 0 -14 -7 -14 -10 0
-10 -3 -1 -14 8 -10 9 -16 1 -21 -7 -4 -7 -12 0 -25 7 -13 7 -21 0 -25 -6 -4
-8 -11 -5 -16 4 -5 -1 -16 -10 -25 -11 -11 -13 -20 -6 -27 7 -7 7 -16 0 -29
-5 -10 -6 -18 -1 -18 7 0 8 -39 2 -47 -7 -8 -5 -30 3 -40 6 -9 5 -13 -3 -13
-8 0 -9 -4 -4 -12 9 -12 10 -32 4 -50 -1 -5 -3 -11 -4 -15 -1 -5 -5 -14 -10
-22 -6 -9 -5 -12 1 -8 5 3 10 0 10 -8 0 -8 -3 -13 -6 -11 -3 2 -11 -2 -18 -9
-10 -11 -10 -14 0 -18 8 -3 7 -10 -6 -25 -13 -14 -15 -22 -7 -27 8 -5 8 -10 0
-20 -8 -10 -8 -15 0 -20 8 -5 8 -10 0 -20 -8 -9 -8 -15 0 -20 6 -3 7 -12 3
-18 -12 -19 -12 -36 -2 -43 6 -4 6 -11 -1 -19 -8 -10 -8 -15 0 -20 8 -5 8 -11
-1 -21 -9 -11 -9 -14 0 -14 9 0 9 -5 1 -20 -8 -14 -8 -20 0 -20 8 0 8 -6 0
-20 -8 -14 -8 -20 0 -20 8 0 8 -6 0 -20 -8 -14 -8 -20 0 -20 8 0 8 -6 0 -20
-8 -15 -8 -20 1 -20 9 0 9 -3 0 -14 -7 -8 -8 -17 -3 -20 10 -6 9 -36 -1 -53
-4 -6 -3 -15 3 -18 8 -5 8 -11 0 -20 -8 -10 -8 -15 0 -20 8 -5 8 -10 0 -20 -8
-9 -8 -15 0 -20 6 -3 7 -12 3 -18 -12 -19 -12 -36 -2 -43 6 -3 5 -11 -2 -20
-9 -11 -9 -14 0 -14 9 0 9 -5 1 -20 -8 -14 -8 -20 0 -20 8 0 8 -6 0 -20 -6
-11 -7 -20 -3 -20 4 0 8 -11 8 -25 0 -14 -3 -25 -8 -25 -4 0 0 -11 9 -25 9
-14 12 -25 8 -25 -5 0 -2 -5 6 -10 8 -5 10 -10 4 -10 -6 0 -11 -7 -11 -15 0
-8 4 -12 9 -8 6 3 9 -3 8 -13 -4 -35 0 -45 13 -38 9 6 9 5 0 -7 -7 -9 -9 -20
-3 -29 5 -9 5 -19 -1 -26 -7 -8 -6 -14 1 -19 8 -5 7 -11 -2 -23 -11 -13 -11
-14 1 -7 11 6 13 4 8 -8 -3 -10 -3 -17 2 -17 5 0 11 -16 13 -35 2 -19 0 -35
-5 -35 -5 0 -4 -6 2 -13 6 -8 8 -17 4 -20 -5 -6 -8 -73 -3 -79 1 -2 3 -20 4
-40 0 -20 5 -40 10 -45 5 -4 6 -3 2 4 -3 6 -1 15 6 19 7 4 10 4 6 -1 -4 -4 -3
-17 3 -28 9 -15 8 -18 -3 -11 -10 6 -10 4 1 -9 15 -19 21 -97 8 -97 -4 0 -3
-9 3 -21 7 -11 9 -27 6 -34 -2 -7 2 -19 9 -25 11 -9 12 -17 5 -30 -6 -12 -6
-21 -1 -25 6 -3 8 -14 6 -25 -2 -11 2 -25 8 -32 7 -7 13 -24 13 -38 2 -40 3
-42 16 -34 7 4 10 4 6 -1 -4 -4 -3 -14 3 -22 9 -10 8 -13 -2 -13 -10 -1 -8 -4
4 -11 12 -7 15 -15 8 -27 -5 -10 -5 -26 0 -41 6 -13 7 -31 4 -39 -5 -13 -3
-13 12 -1 10 7 15 10 11 5 -4 -5 -3 -17 3 -27 8 -15 6 -18 -8 -13 -10 3 -7 -2
7 -10 14 -8 19 -15 11 -16 -10 0 -10 -6 4 -26 12 -18 13 -24 4 -19 -8 3 -5 -1
5 -9 11 -9 15 -16 9 -16 -12 0 -9 -50 4 -59 4 -3 9 -17 9 -31 2 -44 9 -64 27
-82 9 -10 18 -29 18 -43 2 -38 3 -43 13 -52 5 -5 6 -2 1 6 -5 9 -4 12 3 7 7
-4 12 -18 12 -31 0 -13 8 -29 17 -34 14 -8 15 -11 3 -11 -12 0 -11 -3 3 -11
13 -8 15 -14 7 -29 -7 -13 -7 -21 0 -25 6 -4 8 -10 6 -14 -3 -4 3 -13 14 -21
10 -7 16 -19 13 -27 -3 -7 0 -13 5 -13 6 0 9 -9 7 -20 -2 -12 2 -23 10 -26 7
-3 11 -12 9 -19 -3 -7 3 -18 14 -24 13 -7 18 -19 17 -36 -2 -14 1 -25 6 -25 5
0 8 -3 8 -7 -4 -25 3 -54 16 -67 17 -16 20 -30 6 -21 -5 3 -13 0 -17 -6 -4 -7
-3 -9 3 -6 6 4 19 -1 29 -9 10 -9 12 -13 4 -9 -8 4 -4 -3 10 -14 23 -19 23
-21 5 -21 -19 -1 -19 -1 1 -13 12 -7 20 -20 19 -29 -2 -10 1 -18 6 -18 4 0 6
-7 3 -15 -5 -12 -2 -14 12 -8 17 6 17 5 5 -10 -12 -15 -12 -17 4 -11 12 5 16
4 12 -3 -4 -6 -2 -17 5 -25 7 -7 14 -22 16 -33 6 -36 27 -75 40 -75 7 0 10 -5
7 -10 -3 -5 -2 -10 3 -10 5 0 8 -13 7 -29 -1 -22 2 -28 13 -23 11 4 14 1 9
-11 -4 -12 -1 -17 11 -17 15 0 15 -2 2 -10 -13 -8 -13 -10 2 -10 11 0 15 -5
12 -14 -3 -8 3 -20 13 -27 21 -16 28 -39 12 -39 -7 0 1 -10 17 -22 16 -13 32
-22 36 -21 4 2 5 -3 2 -10 -8 -22 14 -69 28 -61 10 6 10 5 1 -7 -10 -13 -8
-19 12 -37 16 -14 25 -17 29 -9 4 7 4 2 2 -10 -2 -14 2 -23 14 -26 10 -3 23
-15 29 -28 l12 -24 -17 22 c-9 13 -21 23 -26 23 -8 0 -1 -11 32 -48 24 -26 40
-70 34 -89 -5 -15 -4 -16 5 -3 9 13 14 11 36 -13 14 -15 22 -27 17 -27 -5 0
-17 10 -26 23 -13 17 -15 18 -7 2 12 -24 47 -55 64 -55 8 0 7 -3 -3 -10 -12
-8 -12 -10 4 -16 12 -4 14 -9 6 -14 -7 -5 -6 -11 6 -21 10 -8 15 -9 11 -2 -4
6 -3 14 2 17 10 7 9 -13 -2 -31 -5 -7 1 -10 18 -9 13 2 22 0 20 -5 -3 -4 -1
-10 4 -13 5 -4 8 -14 6 -24 -4 -28 14 -45 33 -30 13 10 14 10 8 0 -4 -7 0 -19
8 -28 9 -8 16 -25 16 -37 0 -18 2 -19 10 -7 8 12 10 12 10 1 0 -8 8 -20 18
-28 11 -9 11 -12 2 -8 -8 4 1 -7 20 -25 19 -18 29 -29 23 -26 -9 5 -11 2 -7
-8 3 -9 9 -15 12 -14 4 0 14 0 22 -1 13 -1 13 -2 0 -11 -11 -7 -11 -10 -2 -10
7 0 10 -5 7 -10 -4 -6 -3 -10 2 -9 19 3 33 -2 33 -12 0 -5 -4 -7 -10 -4 -6 3
-7 -1 -4 -9 3 -9 10 -13 15 -10 5 3 9 0 9 -6 0 -6 5 -8 11 -5 6 4 9 0 7 -11
-2 -13 4 -20 20 -22 18 -3 21 -6 12 -17 -9 -11 -6 -13 14 -11 17 2 23 -1 19
-10 -3 -8 6 -18 21 -24 15 -5 31 -21 36 -36 6 -15 16 -24 24 -21 9 4 12 -2 10
-19 -2 -20 0 -23 11 -14 8 7 15 7 19 1 3 -5 0 -11 -6 -14 -8 -3 -3 -9 12 -15
14 -6 19 -11 12 -11 -18 -1 11 -31 30 -31 10 0 9 -3 -2 -10 -12 -8 -11 -10 5
-10 23 0 45 -18 45 -34 0 -6 -5 -3 -11 7 -5 9 -15 17 -22 17 -8 0 -9 -3 -1 -8
6 -4 16 -16 22 -27 6 -11 12 -14 12 -7 0 6 5 12 11 12 6 0 9 -7 5 -15 -3 -8 1
-18 8 -22 7 -5 18 -17 24 -28 6 -11 12 -14 12 -7 0 6 -9 21 -20 32 -11 11 -17
20 -12 20 15 0 72 -68 72 -86 0 -16 2 -17 11 -4 9 12 10 10 6 -8 -5 -20 -3
-21 11 -10 13 11 15 11 10 -3 -4 -9 2 -23 13 -32 10 -9 19 -13 19 -7 0 5 -8
14 -17 20 -12 8 -13 10 -3 7 8 -2 21 -16 28 -30 7 -15 20 -27 28 -27 7 0 14
-6 14 -12 0 -9 4 -8 11 2 9 12 10 11 6 -7 -4 -20 -3 -21 14 -12 11 5 19 6 18
2 -1 -4 -1 -13 0 -20 1 -17 81 -99 81 -84 0 6 -6 14 -13 17 -8 3 -24 19 -37
37 -21 29 -19 28 18 -8 23 -22 42 -46 42 -53 0 -8 5 -10 12 -6 8 5 9 2 5 -9
-3 -9 -1 -19 5 -23 7 -4 8 -3 4 4 -12 20 9 13 24 -8 8 -11 22 -20 32 -20 10 0
18 -5 18 -11 0 -5 -4 -7 -10 -4 -6 3 -7 -1 -3 -10 4 -13 8 -14 14 -4 6 10 18
3 46 -26 21 -22 29 -33 18 -25 -19 14 -19 14 -6 -3 7 -9 18 -17 23 -17 14 0
38 -26 38 -42 0 -10 3 -9 10 2 7 12 10 12 10 1 0 -8 6 -11 16 -7 8 3 12 2 9
-4 -3 -6 -2 -10 3 -10 5 0 14 -10 21 -22 l11 -23 -6 23 -6 23 26 -22 c14 -12
26 -27 26 -33 0 -5 -7 -1 -16 10 -14 18 -15 18 -4 -4 6 -12 15 -20 21 -17 12
8 40 -20 31 -31 -4 -5 1 -2 10 5 15 11 17 10 13 -6 -2 -12 2 -20 10 -20 8 0
12 5 9 11 -3 6 4 0 16 -14 12 -14 19 -19 15 -12 -12 22 7 12 38 -20 16 -18 24
-25 17 -15 -22 30 -1 18 35 -20 19 -20 35 -42 35 -48 0 -5 4 -3 9 4 8 12 13
11 29 -9 17 -21 22 -23 36 -11 14 12 16 12 11 -2 -6 -14 8 -30 30 -33 6 0 16
-2 23 -2 7 -1 11 -6 7 -11 -3 -5 -1 -12 5 -16 5 -3 10 -1 10 5 0 6 5 8 10 5 6
-4 8 -11 5 -16 -4 -5 -2 -9 4 -9 5 0 17 -7 25 -16 9 -8 16 -11 16 -5 0 5 -8
15 -17 20 -10 6 -13 11 -7 11 6 0 23 -14 38 -32 14 -17 26 -26 26 -20 0 7 5
12 11 12 5 0 7 -4 4 -10 -3 -5 -1 -10 5 -10 6 0 9 -4 5 -9 -3 -6 4 -8 16 -6
18 4 19 2 7 -12 -12 -15 -11 -15 12 -3 24 13 24 12 10 -5 -8 -10 -10 -16 -3
-12 6 4 14 3 18 -3 3 -5 16 -10 29 -10 12 0 27 -5 32 -10 6 -6 24 -12 41 -13
24 -1 29 -5 21 -15 -6 -7 -8 -15 -4 -19 3 -3 6 -2 6 4 0 5 6 10 14 10 8 0 12
-6 8 -15 -3 -10 -1 -13 6 -8 7 4 12 2 12 -3 0 -6 5 -11 11 -11 5 0 7 5 4 10
-3 6 -1 10 4 10 6 0 11 -10 11 -21 0 -19 2 -20 17 -8 11 10 14 10 9 2 -4 -8
-2 -13 6 -13 7 0 22 -12 32 -27 9 -16 15 -20 12 -10 -3 9 -1 17 4 17 6 0 10
-7 10 -16 0 -8 5 -12 10 -9 6 3 10 1 10 -4 0 -6 9 -11 20 -11 11 0 20 -6 20
-12 0 -9 4 -8 10 2 6 10 10 11 10 3 0 -7 9 -13 20 -13 11 0 20 -4 20 -10 0 -5
5 -10 11 -10 5 0 7 6 3 12 -4 7 8 -3 25 -22 18 -19 30 -29 26 -23 -3 7 -1 13
4 13 6 0 11 -4 11 -10 0 -5 7 -10 15 -10 8 0 15 -4 15 -10 0 -5 7 -6 17 -3 11
4 14 3 9 -5 -5 -8 -2 -10 8 -6 11 4 16 0 16 -11 0 -14 3 -15 15 -5 12 10 16 9
21 -4 5 -12 10 -14 19 -6 9 8 14 6 19 -5 4 -11 12 -14 27 -10 15 5 19 4 15 -4
-4 -6 0 -11 9 -11 10 0 13 -5 9 -12 -5 -9 -2 -9 9 1 11 9 17 10 17 2 0 -6 9
-11 20 -11 11 0 20 -5 20 -11 0 -8 6 -7 17 2 11 10 14 10 9 2 -5 -9 0 -13 13
-13 12 0 21 -4 21 -10 0 -5 5 -10 11 -10 5 0 7 6 3 13 -6 10 -4 10 7 0 7 -7
23 -13 36 -13 13 0 23 -4 23 -9 0 -5 7 -12 16 -15 12 -5 14 -3 8 7 -5 7 -2 5
8 -5 9 -10 28 -18 42 -18 14 0 26 -6 26 -12 0 -9 4 -8 10 2 6 10 10 11 10 3 0
-8 13 -13 30 -13 17 0 30 -4 30 -10 0 -5 9 -10 20 -10 11 0 20 -4 20 -10 0 -5
10 -10 23 -10 13 0 29 -6 36 -12 11 -10 13 -10 7 0 -4 6 -2 12 3 12 6 0 11 -4
11 -10 0 -5 18 -10 40 -10 22 0 40 -4 40 -10 0 -5 5 -10 11 -10 5 0 8 4 5 9
-4 5 5 4 19 -2 14 -7 25 -16 25 -22 0 -5 5 -3 10 5 6 10 10 11 10 3 0 -7 9
-13 19 -13 11 0 22 -6 24 -12 4 -10 8 -9 16 2 7 10 11 11 11 3 0 -8 14 -13 38
-13 21 0 44 -6 51 -12 11 -10 13 -10 7 0 -4 6 -2 12 3 12 6 0 11 -3 11 -7 0
-5 11 -13 25 -20 14 -6 23 -7 19 -2 -3 5 0 9 5 9 6 0 11 -4 11 -10 0 -5 14
-10 30 -10 17 0 30 -5 30 -12 0 -9 4 -8 10 2 6 10 10 11 10 3 0 -9 19 -13 63
-13 37 0 69 -5 76 -13 11 -9 13 -9 7 1 -4 6 -2 12 3 12 6 0 11 -4 11 -10 0 -6
34 -10 81 -10 61 0 78 -3 73 -13 -5 -7 0 -6 11 3 11 9 16 10 11 3 -4 -8 -2
-13 8 -13 8 0 16 -4 18 -9 2 -6 63 -11 136 -12 73 -1 130 -4 127 -7 -3 -3 4
-11 14 -18 15 -11 109 -14 446 -14 235 -1 429 1 432 3 2 3 19 1 38 -3 27 -6
32 -5 28 7 -3 7 -2 13 3 12 23 -4 35 2 28 14 -5 8 -2 8 9 -2 15 -12 20 -9 19
9 0 3 53 3 119 0 65 -3 119 -2 119 2 0 4 9 5 20 3 11 -2 20 0 20 6 0 5 31 9
69 9 46 0 71 4 74 13 4 9 8 9 15 -2 8 -11 11 -10 16 7 5 14 13 19 26 17 11 -2
20 -1 20 3 0 4 19 6 41 4 33 -4 40 -2 33 9 -6 12 -5 12 8 1 11 -9 18 -10 23
-2 3 5 30 10 58 10 39 0 57 5 69 19 13 15 28 19 71 18 31 -1 55 0 55 3 -1 18
4 21 17 10 8 -7 16 -10 16 -6 1 3 3 11 4 16 1 6 3 13 4 16 0 4 9 0 18 -7 14
-12 16 -12 9 0 -7 11 -1 13 26 9 26 -3 34 0 31 9 -3 8 2 11 16 8 12 -2 21 0
21 5 0 4 10 6 22 2 16 -4 19 -2 13 9 -8 12 -6 12 8 0 12 -9 17 -10 17 -2 0 8
11 11 28 9 15 -2 33 4 40 12 8 8 11 10 8 3 -5 -10 0 -10 33 -4 2 1 -1 7 -7 13
-8 10 -2 14 25 16 20 1 43 8 50 14 11 9 17 9 24 -3 6 -10 9 -10 9 -1 0 6 11
12 25 12 14 0 25 5 25 10 0 6 5 10 11 10 5 0 7 -4 4 -10 -3 -6 1 -7 9 -4 9 3
14 11 13 17 -1 7 4 11 12 9 7 -1 25 5 38 14 20 12 27 13 33 4 5 -8 9 -9 11 -1
2 6 16 12 31 13 15 1 24 6 21 12 -4 5 3 7 16 3 18 -4 20 -3 10 9 -10 12 -9 13
5 8 9 -3 16 -2 16 4 0 5 7 13 16 16 10 4 13 2 8 -7 -5 -9 -4 -9 7 1 7 6 21 12
32 12 10 0 16 4 12 9 -3 6 4 8 15 6 11 -2 20 0 20 5 0 5 9 7 19 5 11 -2 22 3
25 11 3 9 10 12 16 9 6 -3 24 4 42 16 17 13 28 18 24 11 -4 -7 -2 -12 3 -12 6
0 11 9 11 20 0 11 5 20 10 20 6 0 10 -6 10 -12 0 -9 3 -8 9 2 6 8 8 17 6 20
-2 4 2 7 10 7 8 0 12 -4 9 -9 -7 -11 38 13 47 25 3 4 15 9 26 10 12 0 19 6 16
13 -6 15 14 28 22 14 4 -6 11 -8 16 -4 5 3 7 10 4 15 -3 5 1 6 9 3 10 -4 16
-1 16 7 0 11 2 11 10 -1 8 -13 12 -12 25 8 9 12 20 20 25 17 4 -3 10 2 14 10
3 8 15 15 26 15 14 0 19 4 14 13 -5 7 0 6 11 -3 10 -8 16 -10 12 -4 -4 7 1 18
10 25 14 12 16 12 8 0 -6 -10 -4 -12 4 -7 7 5 10 13 8 20 -3 7 8 12 27 13 56
3 99 20 89 36 -4 6 2 8 15 5 12 -3 21 -3 20 1 0 3 0 14 1 24 1 15 4 16 22 6
15 -8 19 -8 15 0 -4 6 -2 11 4 11 6 0 8 5 4 12 -4 7 -3 8 4 4 14 -9 55 12 47
24 -3 4 6 7 21 5 18 -2 22 1 15 8 -17 17 -13 31 4 17 10 -9 15 -9 15 -1 0 6 9
11 20 11 11 0 23 7 26 15 4 8 10 15 16 15 5 0 6 -6 2 -12 -5 -9 -3 -9 9 1 9 7
14 18 10 24 -3 6 -1 7 5 3 7 -4 12 -2 12 4 0 6 5 8 10 5 6 -3 10 1 10 10 0 12
5 15 16 11 11 -4 15 -2 11 8 -4 10 0 14 13 11 11 -2 23 1 26 7 5 7 2 8 -6 3
-9 -6 -11 -4 -6 4 5 7 15 10 23 7 9 -4 11 -2 7 6 -5 8 -2 9 11 4 15 -5 16 -4
6 8 -9 11 -9 16 0 22 8 4 9 3 5 -4 -4 -7 -3 -12 3 -12 5 0 11 5 13 10 2 6 13
12 25 13 12 0 19 5 16 11 -4 5 1 7 11 3 10 -4 15 -3 11 3 -3 6 1 10 11 10 14
0 15 2 3 17 -10 12 -11 15 -1 9 7 -4 20 -2 29 6 14 11 16 11 8 -1 -6 -10 -4
-12 4 -7 7 5 10 15 6 23 -5 14 -3 14 12 2 11 -9 14 -10 9 -1 -4 7 -2 12 4 12
6 0 8 4 5 10 -3 6 1 7 10 4 11 -5 14 -2 9 10 -5 12 -2 15 10 10 12 -5 16 0 16
17 0 19 2 21 10 9 6 -10 10 -11 10 -2 0 6 6 12 13 12 7 0 23 9 34 19 16 15 23
17 33 8 10 -10 10 -8 2 9 -9 16 -8 21 4 21 7 0 14 -5 14 -10 0 -6 3 -7 6 -4 4
4 1 14 -7 23 -13 16 -12 16 8 6 19 -11 21 -9 16 11 -4 18 -3 19 6 7 9 -13 11
-12 11 6 0 24 18 44 40 44 8 0 21 9 28 21 7 11 19 18 27 15 7 -2 19 2 26 10 9
12 9 14 -2 11 -8 -2 -11 -2 -6 0 4 3 4 9 1 15 -4 6 1 6 14 -1 18 -9 19 -8 14
12 -5 20 -4 21 11 8 15 -12 17 -12 11 4 -6 14 -4 16 7 10 12 -8 12 -6 0 8 -8
10 -11 20 -7 24 3 3 6 1 6 -5 0 -6 9 -10 19 -9 16 1 18 5 9 20 -9 17 -8 17 14
6 21 -11 22 -11 9 4 -11 14 -11 18 3 23 9 3 14 9 11 13 -2 4 3 8 12 8 12 0 11
-5 -7 -19 -12 -10 -18 -18 -13 -18 16 0 54 46 46 55 -5 5 0 3 10 -4 15 -12 17
-11 17 10 0 20 2 21 11 9 9 -12 10 -11 6 7 -3 15 -1 20 9 16 9 -3 14 1 14 12
0 11 5 15 15 12 8 -4 17 -1 21 5 5 7 2 8 -6 3 -9 -5 -11 -4 -6 3 4 7 14 12 21
12 9 0 12 6 9 15 -5 11 -2 13 12 8 11 -4 15 -3 11 4 -4 6 0 14 9 17 9 4 14 9
11 13 -10 10 13 32 27 27 8 -3 16 5 20 20 3 14 11 26 17 26 6 0 7 -5 3 -12 -5
-7 -3 -8 5 -3 7 4 11 15 8 25 -3 13 0 16 14 13 11 -3 19 0 19 6 0 7 -5 9 -12
5 -7 -4 -8 -3 -4 5 6 9 11 9 24 -1 14 -12 14 -10 3 10 -12 22 -11 23 9 12 20
-11 21 -10 9 12 -12 22 -11 22 6 8 11 -9 16 -10 11 -2 -4 6 -2 12 3 12 6 0 11
5 11 11 0 5 -5 7 -12 3 -7 -4 -8 -3 -4 5 4 6 11 9 16 6 4 -3 14 3 21 12 10 12
10 14 2 9 -7 -4 -13 -2 -13 3 0 10 21 16 43 12 4 0 6 5 5 11 -2 7 3 12 11 10
12 -3 12 0 1 12 -12 15 -7 21 15 16 6 -1 7 2 3 5 -4 4 -2 17 4 29 7 11 11 24
10 28 -1 4 5 5 13 2 10 -4 15 0 15 12 0 14 2 16 9 6 6 -10 10 -8 14 8 4 15 10
19 19 14 11 -6 11 -5 0 8 -12 14 -10 16 10 10 21 -5 22 -4 8 13 -14 17 -14 18
10 5 22 -12 23 -11 13 1 -10 12 -8 17 8 27 10 7 19 17 19 23 0 5 -5 7 -12 3
-7 -4 -8 -3 -4 5 4 6 12 9 17 6 5 -4 9 1 9 9 0 8 5 18 12 22 6 4 8 3 5 -3 -3
-5 0 -10 7 -10 8 0 12 7 8 15 -3 10 -1 13 6 8 8 -4 10 -2 6 7 -3 9 3 17 17 20
20 5 21 8 8 24 -7 10 -10 15 -5 11 9 -7 46 26 46 42 0 6 5 10 11 10 8 0 7 5
-1 15 -11 13 -10 14 2 10 8 -3 21 2 29 12 12 16 12 17 -1 8 -10 -6 -9 -4 1 6
13 12 15 19 7 27 -8 8 -4 9 13 5 22 -6 23 -5 10 10 -12 15 -12 17 2 12 8 -4
18 -1 22 4 3 6 11 8 17 5 7 -4 8 -2 4 5 -6 9 -11 9 -23 -1 -15 -12 -15 -11 -3
9 8 12 18 19 24 16 5 -4 7 1 2 12 -5 15 -4 16 9 5 13 -11 14 -10 10 3 -4 9 3
24 17 37 13 13 17 20 11 16 -7 -4 -13 -2 -13 5 0 6 8 9 20 6 16 -4 18 -2 10
13 -7 13 -6 21 2 26 6 4 8 3 4 -4 -3 -6 -3 -13 2 -16 7 -4 11 10 14 52 1 7 8
10 16 7 12 -4 13 -3 2 10 -11 13 -9 15 11 15 19 0 21 2 9 10 -13 8 -12 10 3
10 10 0 15 4 12 10 -3 5 0 10 7 10 9 0 9 3 -2 10 -10 6 -11 10 -2 10 6 0 12 8
12 18 0 9 5 24 11 32 8 12 9 9 5 -10 -3 -14 -3 -19 0 -12 3 6 10 10 15 7 5 -4
6 1 3 9 -3 9 -1 16 6 16 6 0 8 5 5 10 -3 6 1 13 10 16 13 5 13 9 3 22 -11 13
-11 14 0 8 18 -11 42 12 35 31 -4 11 -2 14 5 9 8 -5 10 -2 6 8 -4 9 -1 16 6
16 9 0 9 4 -1 17 -12 15 -12 16 5 10 17 -7 17 -6 5 10 -9 11 -10 14 -1 9 7 -4
12 -1 12 9 0 9 4 13 10 10 6 -4 7 1 3 11 -4 12 -3 15 6 10 8 -6 11 -2 9 10 -2
10 3 19 10 20 6 1 14 2 17 3 2 0 0 13 -6 27 -8 23 -8 25 5 15 13 -11 15 -9 11
9 -4 18 -2 20 11 9 12 -10 13 -9 8 6 -6 14 -4 16 7 10 11 -7 11 -5 -1 10 -9
11 -10 16 -2 11 7 -4 12 -2 12 4 0 6 4 9 9 6 4 -3 7 6 5 19 -1 14 2 25 7 25 6
0 8 4 4 9 -3 6 3 15 13 20 13 7 18 20 17 40 -1 17 2 28 6 26 4 -3 10 2 13 11
4 10 2 13 -7 8 -9 -6 -9 -5 0 8 7 8 9 19 5 23 -4 5 -1 5 6 1 8 -5 12 0 12 13
0 11 5 23 10 26 6 3 10 1 10 -6 0 -7 3 -10 6 -7 3 4 1 16 -5 27 -10 18 -9 20
6 14 12 -5 15 -2 10 10 -4 11 1 20 14 28 16 8 18 13 8 25 -8 10 -8 14 0 14 6
0 11 7 11 15 0 8 8 15 18 16 14 0 14 2 -3 9 -19 8 -19 9 -1 9 14 1 17 7 14 30
-2 17 -1 28 4 25 4 -3 8 2 8 11 0 9 4 14 8 11 4 -2 14 4 21 16 7 11 8 17 2 13
-17 -10 -13 6 6 27 12 13 13 18 3 18 -9 0 -7 7 6 22 10 12 13 18 7 14 -9 -5
-11 -2 -7 8 3 9 10 16 15 16 4 0 6 7 3 15 -4 9 -1 15 7 15 10 0 10 3 1 12 -9
9 -5 17 16 37 16 15 20 22 10 18 -10 -3 -18 -2 -18 4 0 5 7 12 15 15 8 4 12
10 9 15 -3 5 0 9 5 9 6 0 11 5 11 11 0 5 -6 7 -12 4 -7 -4 -6 -1 3 7 9 7 14
19 11 27 -2 8 0 11 5 8 6 -4 9 7 8 24 -1 18 4 33 12 36 10 4 11 9 2 19 -9 11
-9 14 0 14 7 0 9 5 6 10 -4 6 -1 9 6 8 6 -2 12 6 14 17 7 75 18 117 25 105 6
-10 11 3 16 38 4 34 10 49 18 45 6 -4 4 2 -4 12 -8 10 -10 16 -4 12 13 -7 27
17 16 27 -11 12 -9 45 5 50 7 3 13 11 13 18 0 9 -3 8 -10 -2 -8 -13 -10 -12
-10 3 0 9 5 17 11 17 6 0 9 9 6 20 -3 11 0 23 5 27 7 4 8 1 3 -7 -5 -9 -4 -11
4 -6 9 6 9 11 -1 24 -10 12 -10 14 0 8 8 -5 12 0 12 14 0 12 5 18 10 15 6 -3
10 1 10 10 0 10 -5 13 -12 9 -10 -6 -9 -3 0 9 8 10 12 36 11 68 -2 35 1 54 9
57 10 3 10 7 1 18 -9 11 -9 14 0 14 7 0 9 5 6 10 -4 6 -1 9 6 8 9 -2 13 8 13
30 0 17 4 32 9 32 5 0 4 6 -2 14 -7 9 -8 17 -3 20 6 3 7 20 2 39 -5 26 -3 39
12 57 13 16 15 25 7 30 -8 6 -8 9 0 15 9 5 9 10 1 20 -8 10 -8 15 0 20 8 5 8
10 0 20 -8 10 -8 15 0 20 8 5 8 11 -1 21 -9 11 -9 14 1 14 7 0 10 7 6 15 -3
10 1 15 12 16 11 0 12 2 4 6 -10 4 -10 8 -1 19 9 11 8 14 -2 14 -10 0 -10 3
-2 11 8 8 8 20 3 35 -5 13 -5 26 -1 29 5 3 8 18 7 34 -1 17 1 28 5 25 9 -5 19
48 11 61 -11 18 -9 44 5 49 7 3 13 11 13 18 0 9 -3 9 -11 -2 -9 -12 -9 -11 -3
5 5 11 9 46 9 78 0 31 4 57 9 57 5 0 3 6 -3 14 -7 8 -8 16 -4 19 4 3 6 50 3
106 -3 56 -1 101 4 101 5 0 3 6 -3 14 -7 8 -8 16 -4 19 4 3 6 50 3 106 -3 56
-1 101 4 101 5 0 4 6 -2 13 -6 7 -7 18 -2 26 4 8 7 19 5 25 -2 6 -6 24 -9 39
-4 18 -11 25 -19 21 -9 -5 -9 -4 0 6 9 10 8 18 -5 38 -9 15 -12 23 -6 20 6 -4
11 -1 11 7 0 8 -4 12 -8 9 -4 -2 -10 0 -13 5 -4 5 -2 12 4 16 7 4 7 12 0 25
-6 10 -6 21 -2 24 4 2 5 32 2 65 -3 34 -2 61 3 61 5 0 5 6 -1 13 -6 7 -7 18
-2 27 5 8 3 22 -7 36 -8 13 -12 28 -8 34 3 5 1 10 -6 10 -9 0 -9 3 0 14 9 10
9 16 1 21 -8 5 -8 10 0 20 8 10 8 15 0 20 -8 5 -8 10 0 20 8 10 8 15 0 20 -7
4 -10 16 -7 26 3 10 0 22 -5 26 -7 3 -8 1 -4 -5 4 -7 2 -12 -3 -12 -6 0 -11
11 -11 25 0 14 -5 25 -11 25 -8 0 -8 4 0 14 8 9 8 16 2 20 -10 6 -8 37 3 55 3
5 -1 15 -10 22 -10 8 -13 21 -9 36 3 13 2 23 -2 23 -12 0 -10 70 2 70 6 0 2 5
-8 11 -9 6 -14 15 -11 21 4 7 2 8 -4 4 -7 -4 -12 -2 -12 4 0 6 -6 8 -12 4 -10
-5 -10 -4 -1 6 9 10 8 18 -5 38 -11 18 -12 23 -4 18 11 -7 12 -4 3 13 -7 11
-8 21 -4 21 4 0 2 5 -5 12 -7 7 -8 17 -2 29 6 11 6 20 1 23 -5 4 -8 17 -7 30
2 19 -1 23 -13 18 -14 -5 -14 -3 -3 11 12 13 11 18 -7 28 -15 10 -17 17 -10
30 6 12 5 20 -3 25 -7 5 -8 3 -3 -6 5 -8 4 -11 -2 -7 -6 4 -10 23 -8 42 1 19
-2 35 -8 35 -5 0 -7 12 -4 26 3 17 0 28 -10 31 -12 5 -12 7 -1 14 10 7 10 9 1
9 -7 0 -13 9 -13 19 0 11 -5 23 -11 26 -6 4 -8 14 -5 22 5 11 2 13 -11 9 -13
-5 -15 -4 -7 4 9 9 7 21 -6 48 -10 20 -16 40 -13 44 2 5 0 8 -6 8 -6 0 -8 7
-4 16 3 9 0 20 -7 24 -11 7 -14 17 -19 63 -1 5 -5 6 -10 3 -5 -4 -7 3 -4 14 3
11 0 20 -6 20 -6 0 -11 9 -11 21 0 13 -4 18 -12 13 -10 -6 -10 -4 0 8 10 13
10 18 1 24 -8 5 -9 3 -4 -6 6 -9 4 -11 -4 -5 -7 4 -11 16 -8 26 3 11 0 19 -6
19 -6 0 -8 3 -4 6 3 4 -1 20 -9 36 -8 16 -12 33 -9 38 3 5 -4 14 -15 20 -13 7
-19 18 -16 26 3 8 2 14 -2 14 -4 0 -8 14 -9 32 0 17 -8 37 -17 44 -13 9 -14
13 -4 17 8 3 6 6 -6 6 -16 1 -17 3 -5 19 7 9 10 14 5 10 -17 -14 -41 25 -45
75 -1 5 -5 6 -10 3 -5 -4 -7 3 -4 14 3 12 0 20 -6 20 -7 0 -9 -5 -5 -12 4 -7
3 -8 -4 -4 -6 4 -9 13 -5 21 3 8 1 15 -5 15 -5 0 -9 8 -9 18 0 34 -3 42 -17
42 -9 0 -12 7 -9 23 4 18 3 19 -7 7 -10 -12 -11 -11 -7 8 4 18 2 22 -9 18 -8
-3 -12 -2 -9 3 3 5 1 12 -5 16 -6 4 -8 11 -5 16 4 5 1 9 -5 9 -7 0 -10 7 -7
15 4 8 -4 22 -19 34 -15 12 -26 31 -27 49 -1 17 -5 28 -9 25 -5 -2 -8 6 -8 19
0 18 -2 20 -10 8 -8 -12 -10 -11 -10 7 0 12 -6 24 -12 26 -10 4 -9 8 2 17 13
10 13 11 -1 7 -12 -4 -18 3 -23 24 -3 17 -10 28 -16 24 -5 -3 -10 2 -10 12 0
15 -2 16 -10 3 -8 -12 -10 -11 -10 8 0 12 -4 22 -9 22 -5 0 -7 9 -4 20 3 12 0
20 -6 20 -7 0 -9 -5 -5 -12 4 -7 3 -8 -5 -4 -9 6 -9 12 1 24 7 10 9 14 4 10
-12 -10 -39 20 -30 33 4 8 3 9 -4 5 -6 -4 -16 4 -23 16 -12 22 -11 22 7 9 10
-8 8 -3 -6 11 -14 14 -29 23 -35 20 -5 -3 -3 3 5 13 9 11 10 16 3 11 -8 -4
-13 -1 -13 8 0 9 -8 16 -17 16 -15 0 -16 2 -3 10 12 7 12 10 1 10 -8 0 -11 6
-7 16 5 14 4 15 -7 5 -11 -9 -17 -8 -27 4 -7 9 -8 15 -2 15 6 0 13 -6 15 -12
3 -7 6 -8 6 -3 1 6 -13 26 -30 44 -17 19 -31 42 -32 52 -1 11 -5 19 -9 19 -4
0 -8 7 -8 15 0 9 -7 18 -16 22 -8 3 -13 11 -10 18 3 9 -3 12 -19 11 -17 -2
-22 1 -17 12 3 9 1 13 -5 9 -12 -7 -38 37 -30 50 3 5 -3 17 -14 26 -10 9 -19
13 -19 7 0 -5 8 -14 18 -19 9 -6 12 -11 7 -11 -17 0 -35 22 -35 44 0 17 -2 18
-10 6 -8 -12 -10 -10 -10 10 0 20 -2 22 -10 10 -8 -12 -10 -11 -10 6 0 22 -38
64 -59 64 -7 0 -9 5 -6 10 3 6 1 10 -4 10 -6 0 -11 8 -11 19 0 10 -8 25 -17
32 -11 10 -14 10 -9 2 4 -7 2 -13 -3 -13 -6 0 -11 8 -11 18 0 9 -9 23 -21 30
-11 7 -18 19 -16 26 6 16 -27 46 -51 46 -14 0 -15 2 -2 10 12 8 11 10 -5 10
-23 0 -45 18 -45 34 0 6 5 3 11 -6 5 -10 14 -18 19 -18 6 0 2 9 -7 19 -9 11
-23 17 -32 13 -14 -5 -14 -3 -3 10 11 14 10 16 -10 11 -18 -4 -20 -3 -8 6 12
9 11 11 -7 11 -17 0 -23 6 -23 23 0 18 -2 19 -11 7 -9 -12 -10 -11 -6 7 3 12
2 21 -2 20 -3 -1 -21 14 -40 33 -31 32 -33 33 -27 10 6 -19 5 -21 -3 -10 -6 8
-11 23 -11 33 0 11 -8 17 -22 17 -19 0 -20 2 -8 10 12 8 11 10 -7 10 -17 0
-23 6 -23 23 0 18 -2 19 -11 7 -9 -12 -10 -11 -6 7 3 12 2 22 -2 21 -7 -3 -77
67 -91 91 -6 9 -10 11 -10 4 0 -7 9 -22 20 -33 11 -11 17 -20 13 -20 -5 0 -24
17 -43 37 -19 21 -26 31 -15 23 18 -14 19 -13 8 1 -7 9 -10 18 -7 22 3 3 -5 3
-18 0 -18 -4 -20 -3 -8 6 12 9 10 11 -10 11 -20 0 -22 2 -10 10 12 8 10 10
-10 10 -20 0 -22 2 -10 10 13 8 12 10 -2 10 -10 0 -17 6 -15 13 1 7 -7 12 -20
11 -13 -1 -20 3 -17 7 3 5 0 9 -6 9 -6 0 -8 5 -5 10 6 10 -7 14 -34 10 -8 -1
-11 4 -8 13 3 7 1 20 -5 28 -8 11 -9 11 -4 -3 3 -10 1 -20 -5 -23 -5 -4 -9 -3
-8 2 3 17 -1 36 -7 30 -9 -9 -33 16 -26 28 3 6 -1 4 -10 -3 -13 -10 -18 -9
-29 5 -9 11 -10 14 -1 9 6 -4 12 -2 12 3 0 6 -8 11 -17 11 -9 0 -38 23 -65 52
-26 29 -48 47 -48 41 0 -6 10 -18 23 -27 l22 -17 -24 12 c-13 6 -26 19 -28 30
-3 10 -9 16 -14 13 -5 -3 -9 0 -9 6 0 6 -4 8 -10 5 -6 -3 -7 1 -4 9 3 9 2 16
-4 16 -6 0 -13 -6 -15 -12 -3 -7 -6 -2 -6 12 -1 20 -3 22 -11 10 -8 -13 -10
-12 -10 3 0 9 -7 17 -15 17 -9 0 -18 7 -21 15 -5 13 -9 13 -23 3 -9 -7 -13 -9
-9 -4 8 10 -15 36 -32 36 -6 0 -8 5 -5 10 5 9 -24 15 -48 11 -5 -1 -6 3 -3 7
3 5 -3 20 -14 32 -11 13 -20 18 -20 12 0 -7 -5 -12 -11 -12 -5 0 -7 5 -4 10 3
6 1 10 -5 10 -6 0 -9 4 -5 9 3 6 -4 8 -16 6 -16 -3 -18 -1 -10 8 7 10 5 13
-10 14 -24 2 -51 27 -41 39 4 5 -2 2 -12 -6 -13 -10 -17 -10 -12 -2 4 7 1 12
-9 12 -9 0 -13 5 -9 11 4 7 -2 6 -17 -2 -22 -11 -23 -11 -10 5 12 14 12 16 -4
10 -13 -5 -16 -4 -11 4 4 7 1 12 -8 12 -8 0 -17 6 -19 13 -4 9 -8 8 -16 -3 -9
-13 -11 -13 -11 2 0 9 -5 20 -12 24 -7 4 -8 3 -4 -4 4 -7 2 -12 -3 -12 -6 0
-11 10 -11 23 0 18 -2 19 -10 7 -5 -8 -10 -10 -10 -5 0 6 -13 19 -28 30 -22
15 -24 16 -13 2 12 -15 12 -17 -3 -11 -9 3 -16 10 -16 16 0 5 -10 6 -21 3 -16
-5 -19 -4 -14 6 6 9 3 11 -9 6 -13 -5 -15 -3 -7 11 9 16 6 18 -21 14 -21 -3
-29 -1 -24 7 4 6 1 11 -8 11 -9 0 -16 5 -16 11 0 5 -4 7 -10 4 -5 -3 -10 -1
-10 5 0 6 -5 8 -12 4 -7 -5 -9 -2 -5 9 4 11 2 14 -9 10 -8 -3 -14 1 -14 9 0
10 -9 13 -30 10 -21 -3 -30 0 -30 9 0 11 -2 11 -10 -1 -6 -10 -10 -11 -10 -2
0 6 -9 12 -20 12 -11 0 -20 5 -20 10 0 6 -7 10 -16 10 -8 0 -22 7 -31 15 -8 8
-20 12 -26 8 -7 -4 -5 2 3 12 10 12 10 16 2 11 -7 -4 -20 -2 -29 6 -12 9 -15
9 -9 1 4 -7 2 -13 -3 -13 -6 0 -11 7 -11 16 0 10 -5 14 -16 10 -8 -3 -12 -2
-9 4 3 6 -5 10 -19 10 -14 0 -26 6 -26 13 0 8 -3 7 -10 -3 -7 -12 -12 -12 -22
-2 -6 6 -8 12 -4 12 5 0 3 7 -4 15 -9 11 -16 12 -25 5 -10 -8 -15 -8 -21 1 -5
8 -3 9 6 4 8 -5 11 -4 6 3 -4 6 -13 9 -20 6 -8 -3 -17 0 -21 6 -5 8 -11 8 -21
-1 -11 -9 -14 -8 -14 4 0 11 -7 15 -20 12 -11 -2 -18 0 -15 5 3 5 -4 11 -15
15 -11 3 -20 12 -20 18 0 7 -4 6 -10 -3 -6 -10 -10 -11 -10 -2 0 7 -13 12 -30
12 -16 0 -30 4 -30 9 0 4 -11 7 -25 6 -14 -2 -23 0 -20 5 3 4 -2 11 -11 14 -8
3 -13 10 -10 15 3 4 -2 8 -12 8 -53 0 -73 4 -67 13 8 13 -18 8 -27 -5 -5 -6
-8 -5 -8 3 0 6 -12 12 -28 12 -15 0 -34 6 -41 13 -11 10 -12 9 -6 -1 6 -11 3
-11 -14 0 -12 7 -21 16 -21 20 0 5 -13 8 -30 8 -17 0 -30 5 -30 13 0 8 -4 7
-10 -3 -6 -10 -10 -11 -10 -2 0 6 -9 12 -20 12 -11 0 -20 6 -20 13 0 9 -2 9
-9 -1 -7 -11 -9 -11 -14 2 -4 10 -13 13 -23 9 -13 -5 -15 -3 -9 7 6 10 4 12
-8 7 -10 -4 -17 -1 -17 5 0 8 -3 9 -10 2 -13 -13 -70 -6 -70 8 0 6 -8 4 -17
-3 -11 -10 -14 -10 -9 -1 5 8 -1 12 -21 12 -17 0 -33 8 -41 20 -7 11 -18 20
-25 20 -6 0 -4 -5 6 -11 9 -5 17 -14 17 -20 0 -5 -10 -1 -22 11 -16 15 -35 20
-75 20 -29 0 -53 5 -53 10 0 6 -5 10 -11 10 -5 0 -7 -6 -3 -12 6 -10 4 -10 -7
0 -7 6 -23 12 -36 12 -13 0 -23 5 -23 10 0 6 -5 10 -11 10 -5 0 -7 -6 -3 -12
6 -10 4 -10 -7 0 -7 7 -39 12 -76 12 -35 0 -63 4 -63 10 0 6 -5 10 -11 10 -5
0 -7 -6 -3 -12 6 -10 4 -10 -7 0 -7 6 -24 12 -37 12 -16 0 -21 4 -16 13 5 8 2
8 -9 -2 -11 -9 -17 -10 -17 -2 0 7 -35 11 -110 11 -67 0 -110 4 -110 10 0 6
-5 10 -11 10 -5 0 -7 -6 -3 -12 6 -10 4 -10 -7 0 -7 7 -40 12 -77 12 -43 0
-61 3 -56 11 4 7 -1 7 -16 -1 -15 -8 -20 -8 -16 -1 5 8 -15 11 -63 11 -50 0
-71 4 -71 13 0 8 -4 7 -10 -3 -6 -9 -10 -11 -10 -3 0 9 -66 13 -270 15 -149 2
-270 0 -270 -4 0 -4 -13 -3 -30 2 -17 5 -30 5 -30 0z m2238 -355 c-3 -3 -9 2
-12 12 -6 14 -5 15 5 6 7 -7 10 -15 7 -18z m1973 -1217 l22 -33 -27 27 c-24
25 -32 38 -22 38 3 0 15 -15 27 -32z m-7846 -18 c-3 -5 -12 -10 -18 -10 -7 0
-6 4 3 10 19 12 23 12 15 0z m8010 -146 c9 -15 12 -23 6 -20 -11 7 -35 46 -28
46 3 0 12 -12 22 -26z m199 -203 c-2 -3 -12 3 -22 13 -16 17 -16 18 5 5 12 -7
20 -15 17 -18z m141 -171 c26 -29 15 -32 -13 -4 -12 13 -19 24 -14 24 5 0 17
-9 27 -20z m595 -875 c7 -9 8 -15 2 -15 -5 0 -12 7 -16 15 -3 8 -4 15 -2 15 2
0 9 -7 16 -15z m495 -1225 c3 -5 1 -10 -4 -10 -6 0 -11 5 -11 10 0 6 2 10 4
10 3 0 8 -4 11 -10z m-10468 -4276 c-3 -3 -12 -4 -19 -1 -8 3 -5 6 6 6 11 1
17 -2 13 -5z m28 -64 c3 -5 2 -10 -4 -10 -5 0 -13 5 -16 10 -3 6 -2 10 4 10 5
0 13 -4 16 -10z m70 -138 c-3 -3 -11 0 -18 7 -9 10 -8 11 6 5 10 -3 15 -9 12
-12z m285 -422 c0 -5 -2 -10 -4 -10 -3 0 -8 5 -11 10 -3 6 -1 10 4 10 6 0 11
-4 11 -10z m8851 -373 c-10 -9 -11 -8 -5 6 3 10 9 15 12 12 3 -3 0 -11 -7 -18z
m-7411 -993 c0 -3 -7 -1 -15 6 -8 7 -15 17 -15 22 0 5 7 3 15 -6 8 -8 15 -18
15 -22z m100 -54 c0 -5 -2 -10 -4 -10 -3 0 -8 5 -11 10 -3 6 -1 10 4 10 6 0
11 -4 11 -10z m700 -380 c0 -5 -2 -10 -4 -10 -3 0 -8 5 -11 10 -3 6 -1 10 4
10 6 0 11 -4 11 -10z"/>
<path d="M2700 10634 c0 -8 5 -12 10 -9 6 4 8 11 5 16 -9 14 -15 11 -15 -7z"/>
<path d="M9060 10621 c0 -10 19 -25 25 -20 1 2 -3 10 -11 17 -8 7 -14 8 -14 3z"/>
<path d="M9380 10381 c0 -6 4 -13 10 -16 6 -3 7 1 4 9 -7 18 -14 21 -14 7z"/>
<path d="M1800 9889 c0 -5 5 -7 10 -4 6 3 10 8 10 11 0 2 -4 4 -10 4 -5 0 -10
-5 -10 -11z"/>
<path d="M1699 9783 c-13 -16 -12 -17 4 -4 9 7 17 15 17 17 0 8 -8 3 -21 -13z"/>
<path d="M10165 9641 c-3 -5 -2 -12 3 -15 5 -3 9 1 9 9 0 17 -3 19 -12 6z"/>
<path d="M10405 9340 c3 -5 8 -10 11 -10 2 0 4 5 4 10 0 6 -5 10 -11 10 -5 0
-7 -4 -4 -10z"/>
<path d="M1086 9013 c-6 -14 -5 -15 5 -6 7 7 10 15 7 18 -3 3 -9 -2 -12 -12z"/>
<path d="M760 8461 c0 -6 4 -13 10 -16 6 -3 7 1 4 9 -7 18 -14 21 -14 7z"/>
<path d="M11505 5010 c-3 -5 -1 -10 4 -10 6 0 11 5 11 10 0 6 -2 10 -4 10 -3
0 -8 -4 -11 -10z"/>
<path d="M10205 2180 c-3 -6 1 -7 9 -4 18 7 21 14 7 14 -6 0 -13 -4 -16 -10z"/>
<path d="M1602 2086 c7 -8 15 -12 17 -11 5 6 -10 25 -20 25 -5 0 -4 -6 3 -14z"/>
<path d="M9935 1881 c-3 -5 -2 -12 3 -15 5 -3 9 1 9 9 0 17 -3 19 -12 6z"/>
<path d="M1866 1807 c3 -10 9 -15 12 -12 3 3 0 11 -7 18 -10 9 -11 8 -5 -6z"/>
<path d="M9505 1490 c-3 -5 1 -10 10 -10 9 0 13 5 10 10 -3 6 -8 10 -10 10 -2
0 -7 -4 -10 -10z"/>
<path d="M2271 1440 c14 -31 19 -36 19 -24 0 6 -7 19 -16 30 -14 18 -14 18 -3
-6z"/>
<path d="M7135 309 c-4 -6 -5 -12 -2 -15 2 -3 7 2 10 11 7 17 1 20 -8 4z"/>
</g>
</svg>
